<?xml version="1.0" encoding="UTF-8" standalone="no"?>
<svg
   xmlns:dc="http://purl.org/dc/elements/1.1/"
   xmlns:cc="http://creativecommons.org/ns#"
   xmlns:rdf="http://www.w3.org/1999/02/22-rdf-syntax-ns#"
   xmlns:svg="http://www.w3.org/2000/svg"
   xmlns="http://www.w3.org/2000/svg"
   xmlns:sodipodi="http://sodipodi.sourceforge.net/DTD/sodipodi-0.dtd"
   xmlns:inkscape="http://www.inkscape.org/namespaces/inkscape"
   version="1.0"
   width="184.92155mm"
   height="132.11447mm"
   viewBox="0 0 698.91609 500.01335"
   id="svg2160"
   sodipodi:docname="brain_blackw_large.svg"
   inkscape:export-filename="brain_blackw_large.png"
   inkscape:export-xdpi="498.60492"
   inkscape:export-ydpi="498.60492"
   inkscape:version="1.0beta2 (2b71d25, 2019-12-03)">
  <metadata
     id="metadata1642">
    <rdf:RDF>
      <cc:Work
         rdf:about="">
        <dc:format>image/svg+xml</dc:format>
        <dc:type
           rdf:resource="http://purl.org/dc/dcmitype/StillImage" />
        <dc:title></dc:title>
      </cc:Work>
    </rdf:RDF>
  </metadata>
  <sodipodi:namedview
     pagecolor="#ffffff"
     bordercolor="#666666"
     inkscape:document-rotation="0"
     borderopacity="1"
     objecttolerance="10"
     gridtolerance="10"
     guidetolerance="10"
     inkscape:pageopacity="0"
     inkscape:pageshadow="2"
     inkscape:window-width="1280"
     inkscape:window-height="755"
     id="namedview1640"
     showgrid="false"
     fit-margin-top="0"
     fit-margin-left="0"
     fit-margin-right="0"
     fit-margin-bottom="0"
     units="mm"
     inkscape:zoom="0.86162603"
     inkscape:cx="234.0337"
     inkscape:cy="440.46975"
     inkscape:window-x="0"
     inkscape:window-y="23"
     inkscape:window-maximized="0"
     inkscape:current-layer="svg2160" />
  <defs
     id="defs2162" />
  <g
     transform="matrix(0.72892197,0,0,0.72892197,-0.17779366,0)"
     id="g849">
    <rect
       transform="rotate(90)"
       inkscape:highlight-color="27135"
       y="-959.49115"
       x="5.8751886e-14"
       height="960.14697"
       width="685.96277"
       id="rect2684"
       style="display:inline;fill:#ffffff;fill-opacity:1;stroke:none;stroke-width:6.86059;stroke-miterlimit:4;stroke-dasharray:none;stroke-opacity:0.997976" />
    <path
       inkscape:connector-curvature="0"
       style="fill:#000000;fill-opacity:1;fill-rule:evenodd;stroke:#ffffff;stroke-width:2.33544;stroke-miterlimit:4;stroke-dasharray:none;stroke-opacity:0.997976"
       id="medulla-oblongata"
       d="m 494.56357,480.93435 c 9.10284,23.28768 2.83085,41.85433 -23.23861,54.87424 -35.43603,20.5231 -46.26253,53.65947 -61.40737,84.13915 -24.5329,-0.87967 -49.87237,-0.67636 -73.49432,-4.46999 l 76.5031,-139.91693 z" />
    <path
       d="m 446.94038,476.95989 c 0,4.56517 -0.76086,9.13033 -5.32602,13.69549 -1.52172,25.86925 -11.4129,34.23871 -25.10838,34.23871 -60.86882,38.80387 -107.28129,41.08645 -142.28086,18.26064 -14.45635,-8.36946 -37.28215,-16.73892 -38.80387,-25.10838 -16.73893,-8.36947 -26.63011,-16.73893 -35.76043,-25.10839 -14.45635,-12.17376 -14.45635,-33.47785 -8.36947,-60.10796 144.56344,-4.56516 217.60602,14.45635 255.64903,44.12989 z"
       id="path2173"
       style="fill:#000000;fill-rule:evenodd;stroke:#ffffff;stroke-width:1.52172;stroke-opacity:0.997976"
       inkscape:connector-curvature="0" />
    <path
       inkscape:connector-curvature="0"
       style="fill:#000000;fill-rule:evenodd;stroke:#ffffff;stroke-width:3.04379;stroke-miterlimit:4;stroke-dasharray:none;stroke-opacity:1"
       id="path2179"
       d="m 534.43931,85.116886 c 23.58666,-1.521721 50.21677,3.043443 73.04258,15.978064 11.4129,0.76086 23.58666,6.84774 33.47785,11.4129 22.06494,1.52172 41.08645,9.13033 57.82537,22.06495 14.45635,4.56516 29.67355,9.89118 42.60817,21.30409 24.34753,14.45634 40.3256,31.19526 47.9342,51.73849 15.97806,5.32602 24.34752,17.49979 24.34752,34.23871 11.41291,9.89118 19.02151,22.82581 20.54323,39.56473 6.08688,12.93462 5.32602,25.86925 1.52172,38.80387 0.76086,4.56516 3.8043,9.89118 0,14.45635 3.8043,8.36946 2.28258,16.73892 -1.52172,25.10838 -2.28258,0 -3.04344,9.89119 -6.08688,11.41291 -1.52172,22.06494 -6.84774,36.52129 -13.69548,47.17333 -7.60861,12.17376 -15.21721,22.82581 -27.39097,25.86925 -12.17377,24.34752 -62.39054,22.8258 -123.25936,14.45634 -5.32602,8.36946 -10.65204,14.45634 -15.97806,20.54323 -8.36946,17.49978 -22.06495,28.15182 -38.80387,34.99957 -13.69549,12.17376 -30.43441,20.54322 -61.62968,8.36946 -29.67355,-1.52172 -53.26021,-8.36946 -60.86882,-31.19527 -7.6086,-0.76086 -17.49978,-4.56516 -33.47784,-12.17376 -11.41291,-2.28259 -20.54323,-8.36947 -28.91269,-15.21721 -8.36946,6.08688 -25.86925,3.04344 -43.36903,0 -27.39097,-1.52172 -46.41248,-5.32602 -55.5428,-12.93462 -12.93462,-3.8043 -25.86925,-7.6086 -35.76043,-15.21721 -22.82581,7.60861 -44.12989,10.65205 -61.62968,0 -50.97763,5.32603 -91.30322,-5.32602 -101.95526,-60.10795 -8.36947,-9.13033 -6.08689,-22.82581 -2.28259,-36.52129 -8.36946,-13.69549 3.04345,-25.10839 14.45635,-37.28215 1.52172,-15.97807 9.13032,-27.39097 20.54322,-37.28215 -1.52172,-10.65205 2.28258,-19.78237 17.49979,-27.39097 6.08688,-18.26065 16.73892,-29.67355 29.67355,-38.04301 0,-19.02151 15.97806,-31.19527 39.56473,-40.32559 18.26064,-22.06495 41.08645,-38.04301 67.71656,-49.45592 10.65204,-8.36946 21.30408,-9.13032 31.95613,-7.6086 12.17376,-15.217204 33.47784,-19.021505 62.39053,-13.695481 7.6086,-5.326024 15.97807,-5.326024 23.58667,-5.326024 17.49978,-1.52172 32.71699,-2.28258 45.65161,-2.28258 22.06495,-4.565162 40.32559,-1.521721 57.82538,4.565161 z" />
    <path
       inkscape:connector-curvature="0"
       style="fill:#ffffff;fill-rule:evenodd;stroke:#ffffff;stroke-width:0.763823;stroke-opacity:0.997976"
       id="path2579"
       d="m 665.2006,460.0065 c 3.63495,-17.97654 -8.17863,-34.02701 -27.26211,-47.50942 -20.90096,-11.55634 -16.35727,-28.24883 -25.44464,-33.38499 -12.72232,-17.33452 -46.34559,-28.24884 -93.59992,-34.02702 -14.53979,-12.19835 -33.62328,-18.61855 -59.97665,-17.97652 -18.17475,-10.91433 -34.53201,-21.18664 -68.15529,-21.18664 -1.81747,5.77817 -4.54368,11.55634 -8.17863,16.69249 3.63495,-3.2101 9.08737,-7.06221 12.72232,-11.55634 29.98833,-1.92605 50.88927,10.27231 62.70286,20.54462 20.90095,-3.2101 39.0757,1.28404 56.3417,15.40846 48.16307,6.42019 82.69508,16.6925 94.50866,34.027 6.36116,15.40846 13.63106,28.24884 27.26212,33.385 15.44853,11.55635 29.07958,28.24884 19.99221,52.64557 2.72621,-1.92606 5.45242,-5.13615 9.08737,-7.06221 z" />
    <path
       inkscape:connector-curvature="0"
       style="fill:#ffffff;fill-rule:evenodd;stroke:#ffffff;stroke-width:0;stroke-miterlimit:4;stroke-dasharray:none;stroke-opacity:0.997976"
       id="path2581"
       d="m 433.44049,83.595165 c 5.65422,4.565164 3.14123,15.978064 6.91071,24.347525 30.15584,2.28258 47.11851,15.97807 41.46429,41.08645 -6.91072,9.89119 -8.16721,16.73893 -3.76948,21.30409 8.79545,6.08688 11.93669,22.06495 15.07792,39.56473 6.28247,9.89118 10.05195,25.86925 10.05195,42.60817 0.62824,14.45635 18.21915,22.82581 15.70617,34.99957 -1.25649,0 -1.88474,0 -2.51299,0 0,-5.32602 -2.51298,-10.65204 -6.91071,-15.2172 -5.65423,-3.8043 -8.16721,-12.93463 -10.05195,-25.10839 0.62824,-10.65204 -1.88474,-21.30408 -8.79546,-32.71699 -3.14123,-14.45634 -4.39772,-35.76043 -16.96266,-42.60817 -7.53896,-3.8043 -3.14124,-13.69548 3.76948,-25.86925 8.16721,-24.34752 -13.82143,-30.4344 -37.06656,-34.23871 -9.4237,-3.04344 -6.91071,-21.304081 -13.19318,-27.390964 1.88474,-0.760861 4.39773,-0.760861 6.28247,-0.760861 z" />
  </g>
</svg>
